<svg xmlns="http://www.w3.org/2000/svg" width="72" height="80"><path fill="#293f42" fill-opacity=".35" d="M14 12h57v67H14z"/><path fill="#aeb9b5" stroke="#4d6064" stroke-width="3" d="M3 3h57v64H3z"/><path fill="#d7d9c8" d="M6 6h51v5H6z"/><circle cx="31" cy="31" r="19" fill="#475f66"/><circle cx="31" cy="31" r="14" fill="#718b8e"/><path fill="#344b53" d="M31 15q17 0 12 13l-12 3zM47 31q0 17-13 12l-3-12zM31 47q-17 0-12-13l12-3zM15 31q0-17 13-12l3 12z"/><circle cx="31" cy="31" r="4" fill="#c4ceca"/><path stroke="#485b60" stroke-width="2" d="M12 53h38M12 58h38M12 63h38"/></svg>
